<svg xmlns="http://www.w3.org/2000/svg" viewBox="0 0 1080 1080"><defs><style>.cls-1{font-size:70.2px;font-family:FuturaPT-Bold, Futura PT;font-weight:700;letter-spacing:0.03em;}.cls-2{letter-spacing:0.05em;}.cls-3{letter-spacing:0.04em;}.cls-4{fill:none;stroke:#000;stroke-miterlimit:10;stroke-width:4px;}</style></defs><g id="Capa_6" data-name="Capa 6"><path d="M425.12,489a618.14,618.14,0,0,1-83.58,5.49A630.62,630.62,0,0,1,274.65,491a16.34,16.34,0,0,0-3.46,32.49,669.23,669.23,0,0,0,70.35,3.65,652.12,652.12,0,0,0,88-5.79A16.33,16.33,0,0,0,425.12,489Z"/><path d="M425.12,653a619.77,619.77,0,0,1-83.58,5.49A633.29,633.29,0,0,1,274.65,655l-.33,0a16.33,16.33,0,0,0-3.13,32.51,666.7,666.7,0,0,0,70.35,3.66,652.13,652.13,0,0,0,88-5.8A16.33,16.33,0,0,0,425.12,653Z"/><path d="M425.12,816.9a619.78,619.78,0,0,1-83.58,5.5,636,636,0,0,1-66.89-3.47,16.33,16.33,0,0,0-3.46,32.48,663.88,663.88,0,0,0,70.35,3.65,652.12,652.12,0,0,0,88-5.79,16.33,16.33,0,0,0-4.41-32.37Z"/><path d="M433.46,938.08a643.33,643.33,0,0,1-91.9,6.54C216,944.62,83,908.1,83,840.46V340.07c0-67.67,133-104.16,258.58-104.16a649.35,649.35,0,0,1,74.15,4.23,41,41,0,0,0-.24,4.46v28.13a636.42,636.42,0,0,0-73.91-4.15c-140.23,0-226.37,41.67-226.37,71.49s86.1,71.5,226.37,71.5a636.42,636.42,0,0,0,73.91-4.15v32.63a655.42,655.42,0,0,1-73.91,4.18c-87.62,0-179.67-17.79-225.92-51.51V506.49c0,29.86,85.69,71.49,225.92,71.49a633.85,633.85,0,0,0,73.91-4.16v32.65a655.42,655.42,0,0,1-73.91,4.18c-87.62,0-179.67-17.79-225.92-51.51V672.91c0,29.82,85.69,71.49,225.92,71.49a633.85,633.85,0,0,0,73.91-4.16v32.64a655.42,655.42,0,0,1-73.91,4.18c-87.62,0-179.67-17.78-225.92-51.54V840.46c0,29.86,85.69,71.5,225.92,71.5a634.2,634.2,0,0,0,74.08-4.18A41.31,41.31,0,0,0,433.46,938.08Z"/><path d="M982.23,203.37H456.7a41.21,41.21,0,0,0-41.23,41.23V904.07c0,1.25.06,2.49.17,3.71A41.34,41.34,0,0,0,456.7,945.3H807c22.67,0,54.72-12.72,71.24-28.25L993.39,808.67c16.52-15.54,30-46.78,30-69.45V244.6A41.33,41.33,0,0,0,982.23,203.37Zm-10,582.79L857.07,894.53a53.49,53.49,0,0,1-8.81,6.47V806.19A25.81,25.81,0,0,1,874,780.42H977.11A41,41,0,0,1,972.2,786.16Zm20.29-47a46.88,46.88,0,0,1-1.4,10.31H874a56.82,56.82,0,0,0-56.68,56.69V913.12A53.31,53.31,0,0,1,807,914.39H456.7a10.41,10.41,0,0,1-10.32-10.32V244.49a10.45,10.45,0,0,1,10.32-10.2H982.2a10.45,10.45,0,0,1,10.32,10.31Z"/><path d="M868.88,580.72H570.05a15.46,15.46,0,1,0,0,30.92H868.88a15.46,15.46,0,0,0,0-30.92Z"/><path d="M734.92,683.77H570.05a15.46,15.46,0,1,0,0,30.91H734.92a15.46,15.46,0,0,0,0-30.91Z"/><path d="M868.88,477.68H570.05a15.46,15.46,0,1,0,0,30.91H868.88a15.46,15.46,0,0,0,0-30.91Z"/><text class="cls-1" transform="translate(615.84 336.1)">Sma<tspan class="cls-2" x="151.99" y="0">r</tspan><tspan x="184.21" y="0">t</tspan><tspan x="-42.05" y="84.24">Contra</tspan><tspan class="cls-3" x="192.99" y="84.24">c</tspan><tspan x="226.26" y="84.24">t</tspan></text><path class="cls-4" d="M551.15,807.72a5.28,5.28,0,0,1-.44,2.11h0l-.63,1-44.54,74.45a5.19,5.19,0,0,1-9.58-3.45h0l-.06,0,5.71-49.1H474.19a5.19,5.19,0,0,1-5.19-5.19,5.25,5.25,0,0,1,.88-2.9h0l40.88-65.81.33-.54,0,0a5.19,5.19,0,0,1,9.4,3l0,.53v0l-2,40.67H546A5.18,5.18,0,0,1,551.15,807.72Z"/></g></svg>